<svg xmlns="http://www.w3.org/2000/svg" viewBox="0 0 100 100"><path d="M46.7 57c.2 0 .4 0 .7-.1.3-.1.5-.1.6-.1 2.4-.6 4.3-2.2 5.6-4.7.6-1.1 1.1-2.3 1.4-3.6.3-1.3.5-2.3.5-3.2v-6.2c-3.3 0-5.9.2-7.6.7-5.1 1.4-7.6 4.6-7.6 9.6 0 2.2.6 4 1.7 5.4 1.3 1.5 2.8 2.2 4.7 2.2zm2.8-11.8c.2 0 .4-.1.6-.1v.1c0 .2 0 .7-.4 2-.2.8-.5 1.5-.8 2.1v.2c-.6 1.2-1.3 1.6-1.9 1.8-.1 0-.3 0-.5.1h-.1c-.3-.3-.4-1-.4-1.9 0-2.1.5-3.4 3.5-4.3z"/><path d="M24 37.9c-2.6 3.7-3.9 8.2-3.9 13.3 0 6.5 2 11.8 6 15.6 3.9 3.7 8.9 5.6 14.7 5.6 3.4 0 6.3-.4 8.8-1.1 2.5-.7 4.9-2 7.3-3.8l.5.5c.7.8 1.6 1.6 2.5 2.4l.7.6.8.3c1.1.5 2.2.7 3.3.7 1.7 0 3.3-.5 4.6-1.5l.1-.1.1-.1c.4-.3 3-2.6 7.7-6.7 1.7-1.4 2.7-3.3 2.7-5.5 0-1.5-.5-3-1.4-4.4l-.1-.1-.1-.1c-.9-1.1-1.5-2-1.9-2.5 0-.1-.2-.4-.5-1.3-.2-.6-.3-1.4-.3-2.3V26.5c0-.2 0-.6-.1-2.5-.1-1.8-.2-2.9-.5-3.8 0-.1-.1-.5-.4-1.7-.4-1.5-.8-2.7-1.3-3.7-.4-.7-.9-1.5-1.6-2.4-.6-.9-1.4-1.7-2.1-2.5l-.2.1-.1-.1c-4.7-4.3-11.1-6.6-19.1-6.6h-2.6c-6.1.3-11.5 2-16.1 5-5.1 3.3-8.3 8.3-9.6 14.9-.1.6-.2 1.2-.2 1.8 0 3.4 2.2 6.1 5.7 6.9l.3.1h.3l1.6.2c-2.1 1.6-4 3.5-5.6 5.7zm12.6-3.2c3.1-1.3 6.9-2.3 11.5-2.9 1.6-.2 4.1-.4 7.6-.7v-1.5c0-3.7-.4-6.2-1.2-7.4-1.2-1.7-3.1-2.6-5.7-2.6h-.7c-1.9.2-3.5.8-4.9 1.8-1.4 1-2.3 2.5-2.7 4.3-.2 1.2-.8 1.8-1.7 2l-9.9-1.2c-1-.2-1.5-.7-1.5-1.6 0-.2 0-.4.1-.6 1-5.1 3.4-8.9 7.2-11.4C38.5 10.4 43 9 48.1 8.8h2.2c6.6 0 11.7 1.7 15.4 5.1.6.6 1.1 1.2 1.6 1.9s.9 1.3 1.2 1.8c.3.5.5 1.3.8 2.2.2 1 .4 1.7.5 2 .1.4.2 1.2.3 2.4.1 1.2.1 2 .1 2.2v20.9c0 1.5.2 2.9.6 4.1.4 1.2.8 2.1 1.3 2.7s1.1 1.4 2 2.6c.3.5.5 1 .5 1.4 0 .5-.2.9-.7 1.2-4.8 4.1-7.4 6.4-7.8 6.7-.4.3-.8.4-1.3.4-.4 0-.8-.1-1.2-.3-.8-.7-1.5-1.4-2.1-2-.6-.6-1-1.1-1.3-1.4-.3-.3-.7-.8-1.3-1.7-.6-.8-1-1.4-1.2-1.7-3.2 3.5-6.4 5.7-9.5 6.6-2 .6-4.4.9-7.3.9-4.4 0-8.1-1.4-10.9-4.1-2.9-2.7-4.3-6.6-4.3-11.6 0-4 1-7.4 2.9-10.2 1.9-2.7 4.6-4.8 8-6.2zm9.3-8.1c.2-.5.4-.6.5-.7.5-.4 1.1-.6 1.9-.7h.4c.1 0 .7 0 1.1.1 0 .2.1.4.2.8-1 .1-1.8.2-2.5.3-.6 0-1.1.1-1.6.2zm35.2 52.6c-.2.1-.5.2-1 .4s-.8.3-1.1.4c-9.3 3.5-18.6 5.3-28.1 5.3-14.3 0-27.4-3.5-39.6-10.5-.5-.3-.9-.3-1.2.1-.1.1-.1.3-.1.4 0 .2.1.5.4.7 5.3 4.8 11.4 8.5 18.1 11.2 6.7 2.6 13.9 4 21.5 4 4.9 0 9.9-.7 15.1-2 5.1-1.4 9.8-3.3 14-5.7 1.4-.8 2.5-1.6 3.3-2.2.7-.5.8-1 .4-1.6-.4-.7-1-.8-1.7-.5z"/><path d="M89.7 74.2c-.4-.5-1.7-.9-3.9-1.1-.4-.1-.9-.1-1.4-.1-1.7 0-3.5.3-5.4.8-1.1.3-2.3.8-3.5 1.7-.2.2-.3.4-.4.6 0 .1-.1.2-.1.2 0 .1 0 .2.1.3.1.1.3.1.6.1 1-.1 2.1-.3 3.3-.4 1.1-.1 2.1-.1 2.9-.1 2.2 0 3.6.3 4.1.9.2.2.3.6.3 1.2 0 1.6-.9 4.6-2.7 8.8-.1.4-.1.7.2.8.1 0 .2.1.3.1.2 0 .4-.1.7-.3 1.6-1.4 2.9-3.3 3.9-5.6s1.4-4.3 1.4-6v-.5c-.1-.7-.2-1.1-.4-1.4z"/></svg>