<?xml version="1.0" encoding="utf-8"?>
<!-- Generator: Adobe Illustrator 23.0.1, SVG Export Plug-In . SVG Version: 6.00 Build 0)  -->
<svg version="1.1" xmlns="http://www.w3.org/2000/svg" xmlns:xlink="http://www.w3.org/1999/xlink" x="0px" y="0px"
	 viewBox="0 0 20 20" style="enable-background:new 0 0 20 20;" xml:space="preserve">
<style type="text/css">
	.st0{fill:#FFFFFF;}
</style>
<g id="Layer_2">
	<polygon class="st0" points="14.7,1.7 17.7,3.3 19,5.9 18.8,8.4 15.5,13.7 12,16.4 10,17.7 6.8,15.9 3.3,11.9 1.5,8.8 1,6.9 
		1.3,4.7 2,3.2 4.8,1.7 7.5,2.1 8.6,2.7 10.2,4 11.6,2.6 14.2,1.7 	"/>
</g>
<g id="Layer_1">
	<path d="M10,18.2c-0.1,0-0.2,0-0.2-0.1c-0.1-0.1-2.3-1.3-4.6-3.3c-1.3-1.2-2.4-2.4-3.2-3.7C1,9.6,0.5,8,0.5,6.5
		c0-2.9,2.4-5.3,5.3-5.3c1,0,2,0.4,2.9,1c0.5,0.4,1,0.9,1.3,1.4c0.3-0.5,0.8-1,1.3-1.4c0.9-0.7,2-1,2.9-1c2.9,0,5.3,2.4,5.3,5.3
		c0,1.5-0.5,3.1-1.5,4.7c-0.8,1.2-1.8,2.5-3.2,3.7c-2.3,2-4.5,3.3-4.6,3.3C10.2,18.2,10.1,18.2,10,18.2L10,18.2z M5.8,2.2
		c-2.3,0-4.3,1.9-4.3,4.3c0,3,2.3,5.8,4.3,7.6c1.8,1.6,3.5,2.7,4.2,3.1c0.6-0.4,2.4-1.5,4.2-3.1c2-1.8,4.3-4.5,4.3-7.6
		c0-2.3-1.9-4.3-4.3-4.3c-1.7,0-3.4,1.4-3.8,2.7c-0.1,0.2-0.3,0.3-0.5,0.3c-0.1,0-0.3-0.1-0.4-0.2C9.6,5,9.5,5,9.5,4.9
		C9.1,3.6,7.5,2.2,5.8,2.2z"/>
</g>
</svg>
