<svg xmlns="http://www.w3.org/2000/svg" viewBox="0 0 20 20"><style/><path d="M10 18.2c-.1 0-.2 0-.2-.1-.1-.1-2.3-1.3-4.6-3.3-1.3-1.2-2.4-2.4-3.2-3.7C1 9.6.5 8 .5 6.5c0-2.9 2.4-5.3 5.3-5.3 1 0 2 .4 2.9 1 .5.4 1 .9 1.3 1.4.3-.5.8-1 1.3-1.4.9-.7 2-1 2.9-1 2.9 0 5.3 2.4 5.3 5.3 0 1.5-.5 3.1-1.5 4.7-.8 1.2-1.8 2.5-3.2 3.7-2.3 2-4.5 3.3-4.6 3.3H10zm-4.2-16c-2.3 0-4.3 1.9-4.3 4.3 0 3 2.3 5.8 4.3 7.6 1.8 1.6 3.5 2.7 4.2 3.1.6-.4 2.4-1.5 4.2-3.1 2-1.8 4.3-4.5 4.3-7.6 0-2.3-1.9-4.3-4.3-4.3-1.7 0-3.4 1.4-3.8 2.7-.1.2-.3.3-.5.3-.1 0-.3-.1-.4-.2.1 0 0 0 0-.1-.4-1.3-2-2.7-3.7-2.7z" id="Layer_1"/></svg>