<svg xmlns="http://www.w3.org/2000/svg" width="47.001" height="47.001"><path d="M46.907 20.12a.989.989 0 00-.896-.569h-2.927C41.223 9.452 32.355 1.775 21.726 1.775 9.747 1.775 0 11.522 0 23.501s9.746 21.725 21.726 21.725c7.731 0 14.941-4.161 18.816-10.857a1.975 1.975 0 00-.722-2.699 1.971 1.971 0 00-2.697.72c-3.172 5.481-9.072 8.887-15.397 8.887-9.801 0-17.776-7.974-17.776-17.774 0-9.802 7.975-17.776 17.776-17.776 8.442 0 15.515 5.921 17.317 13.825h-2.904a.99.99 0 00-.896.569.985.985 0 00.136 1.051l4.938 5.925a.988.988 0 001.517 0l4.938-5.925a.987.987 0 00.135-1.052z"/><path d="M21.726 6.713a1.975 1.975 0 00-1.975 1.975v11.984a3.451 3.451 0 00-1.481 2.83 3.461 3.461 0 003.457 3.457c.522 0 1.014-.125 1.458-.334l6.87 3.965a1.974 1.974 0 101.974-3.419L25.152 23.2a3.44 3.44 0 00-1.449-2.526V8.688a1.979 1.979 0 00-1.977-1.975zm0 18.269a1.483 1.483 0 01-1.481-1.48c0-.816.665-1.481 1.481-1.481s1.481.665 1.481 1.481c0 .815-.665 1.48-1.481 1.48z"/></svg>