<svg xmlns="http://www.w3.org/2000/svg" viewBox="0 0 100 100"><path d="M2 50c0 .8 0 1.5.1 2.2v.7c0 .5.1 1.1.1 1.6 0 .2 0 .5.1.7.1.6.1 1.2.2 1.8 0 .1 0 .3.1.4.1.7.2 1.4.4 2.1 0 .2.1.4.1.6l.3 1.5c.1.2.1.5.2.7.1.5.3 1 .4 1.5.1.2.1.4.2.6.2.7.4 1.3.7 2 .1.2.1.4.2.6.2.5.4.9.6 1.4.1.2.2.5.3.7.2.4.4.8.6 1.3.1.2.2.5.3.7.3.6.6 1.2.9 1.7.1.2.2.3.3.5.3.5.5.9.8 1.4.1.2.3.5.4.7.2.4.5.7.7 1.1.2.2.3.5.5.7l.9 1.2c.1.2.2.3.3.5l1.2 1.5c.2.2.3.4.5.6.3.3.6.6.8 1l.6.6c.3.3.6.7.9 1 .2.2.3.4.5.5l1.4 1.4c.2.2.4.3.5.5.3.3.7.6 1 .9.2.2.4.4.6.5.3.3.7.6 1 .8.2.2.4.3.6.5.5.4 1.1.8 1.6 1.2.1.1.3.2.4.3.4.3.9.6 1.3.8.2.1.4.3.7.4.4.2.8.5 1.2.7.2.1.4.2.6.4.6.3 1.1.6 1.7.9.1 0 .1.1.2.1.6.3 1.3.6 1.9.9.2.1.4.2.6.2.3.1.5.2.8.3-.4-3.8-.8-9.6.2-13.8.9-3.7 5.6-23.9 5.6-23.9s-1.4-2.9-1.4-7.1c0-6.7 3.9-11.7 8.7-11.7 4.1 0 6.1 3.1 6.1 6.8 0 4.1-2.6 10.3-4 16-1.1 4.8 2.4 8.7 7.1 8.7 8.5 0 15.1-9 15.1-22 0-11.5-8.3-19.5-20-19.5C36 28.4 28 38.6 28 49.2c0 4.1 1.6 8.5 3.6 11 .4.5.4.9.3 1.4-.4 1.5-1.2 4.8-1.3 5.4-.2.9-.7 1.1-1.6.6-6-2.8-9.7-11.6-9.7-18.6 0-15.1 11-29 31.7-29 16.7 0 29.6 11.9 29.6 27.7 0 16.5-10.4 29.9-24.9 29.9-4.9 0-9.4-2.5-11-5.5 0 0-2.4 9.2-3 11.4-1.1 4.2-4 9.4-6 12.6.6.2 1.3.4 2 .6.2.1.5.1.7.2.5.1 1 .2 1.4.3.2.1.5.1.7.2.6.1 1.3.2 1.9.3h.2l2.1.3c.2 0 .4 0 .7.1.5.1 1.1.1 1.6.1h.6c.7 0 1.5.1 2.2.1 26.5 0 48-21.5 48-48 0-20.4-12.8-37.9-30.7-44.8-.4-.5-1.1-.7-1.7-1-1.4-.5-2.8-.9-4.3-1.2-1.3-.3-2.5-.6-3.8-.8-1.6-.2-3.2-.4-4.8-.5H50c-1.7 0-3.3.1-4.9.2l-2.4.3C19.6 6.1 2 26 2 50z"/></svg>