<svg xmlns="http://www.w3.org/2000/svg" viewBox="0 0 100 100"><circle cx="36.4" cy="55.8" r="6.2"/><circle cx="63.6" cy="55.8" r="6.2"/><path d="M50 78c6.7 0 11.5-1.5 14.5-4.5.7-.7.7-1.8 0-2.4-.7-.7-1.8-.7-2.4 0-2.4 2.4-6.3 3.5-12.1 3.5-5.7 0-9.7-1.1-12.1-3.5-.7-.7-1.8-.7-2.4 0-.7.7-.7 1.8 0 2.4 3 3 7.8 4.5 14.5 4.5z"/><path d="M70 84c2.9-1.1 5.7-2.5 8.2-4.1 7.8-5.1 12-11.9 12-19.2 0-1-.1-1.9-.2-2.9 3-1.8 5-5.1 5-8.8 0-5.6-4.6-10.2-10.2-10.2-2.6 0-5 1-6.8 2.6-6.9-4.5-15.9-7.1-25.5-7.5l5.3-16.7 14.3 3.4c0 4.6 3.8 8.4 8.4 8.4 4.7 0 8.4-3.8 8.4-8.4 0-4.6-3.8-8.4-8.4-8.4-3.5 0-6.4 2.1-7.7 5.1L57 13.5c-.9-.2-1.8.3-2 1.2l-6.1 19.2c-10.2.1-19.6 2.8-26.9 7.5-1.8-1.6-4.2-2.6-6.8-2.6C9.6 38.8 5 43.4 5 49c0 3.7 2 7 5 8.8-.2 1-.2 1.9-.2 2.9 0 7.3 4.3 14.1 12.1 19.2 2.5 1.6 5.2 3 8.2 4.1-.1 0 21.2 8.7 39.9 0zm10.5-68.4c2.7 0 5 2.2 5 5 0 2.7-2.2 5-5 5-2.7 0-5-2.2-5-5s2.3-5 5-5zM8.5 49c0-3.7 3-6.8 6.8-6.8 1.4 0 2.8.4 3.9 1.2-4 3.1-6.7 6.8-8.2 10.8C9.4 53 8.5 51.1 8.5 49zM50 84.1c-20.3 0-36.8-10.5-36.8-23.4 0-12.9 16.5-23.4 36.8-23.4 20.3 0 36.8 10.5 36.8 23.4 0 12.9-16.5 23.4-36.8 23.4zm39.1-29.9c-1.4-4-4.2-7.6-8.2-10.8 1.1-.8 2.4-1.2 3.9-1.2 3.7 0 6.8 3 6.8 6.8-.1 2.1-1 4-2.5 5.2z"/></svg>