<svg xmlns="http://www.w3.org/2000/svg" viewBox="0 0 100 100"><path d="M33.9 90c-8.3 0-20.2-1.6-30.2-9.1-1.8-1.3-2.4-3.7-1.5-5.8.8-2.1 3-3.2 5.2-2.8 0 0 7.3 1.2 13.9-1.1C17.7 69 14 65.3 12 59c-.3-1-.3-2 0-3-3.3-3.3-6.5-8.5-6.4-16.4 0-1.4.7-2.7 1.7-3.6-2-4.9-3.2-12.1 1.4-20 .8-1.3 2.2-2.2 3.7-2.4 1.6-.1 3.1.5 4.1 1.7.1.1 12.4 14.3 27.7 16.4.4-12 10.2-21.7 22.3-21.7 5.2 0 10.3 1.8 14.2 5.1 1.8-.2 4.6-.9 7.3-2.8 1.4-1 3.3-1.2 4.8-.4 1.6.7 2.6 2.3 2.8 4 0 .5 0 1.5-.4 2.8.3.1.6.3.8.5 1.7 1.2 2.5 3.3 1.9 5.3-.6 2.3-3.6 5.9-8.9 10.8-.2 9.7-3.7 44.3-43.9 53.7 0 0-4.6 1-11.2 1zM9.2 78c8.3 5.3 17.9 6.5 24.7 6.5 6 0 10.1-.9 10.2-.9 38.1-8.9 39.7-42.8 39.6-49.5v-1.2l.9-.8c3.7-3.4 5.8-5.7 6.9-7.1-.2 0-.3 0-.5.1L85.4 27c-.9.3-1.7-.8-1.1-1.6l3.7-4.6c1-1.2 1.5-2.2 1.8-3-3.8 2.3-7.4 2.9-9.9 3h-1.1l-.9-.8c-3.1-2.9-7.2-4.5-11.4-4.5-9.3 0-16.8 7.5-16.8 16.8 0 .7 0 1.3.1 2l.2 2c.1.6-.4 1.1-1 1.1l-2-.1C30 37 16.1 23 12.9 19.6c-3.5 6.8-1.5 12.8.9 16.8l3.3 5.5c.5.9-.4 1.9-1.3 1.4l-4.6-2.5c.2 5.4 2.3 9.6 6.3 12.6l2.4 1.9c.6.5.5 1.4-.2 1.7l-2.2.9c2.3 6.7 7.3 9.4 11.1 10.4l3.6 1c.8.2 1 1.3.3 1.8l-3 2.1c-7 4.9-15.8 5.1-20.3 4.8zm3.1-59.1zm79-2.1z"/></svg>