<?xml version="1.0" standalone="no"?>
<!DOCTYPE svg PUBLIC "-//W3C//DTD SVG 20010904//EN"
 "http://www.w3.org/TR/2001/REC-SVG-20010904/DTD/svg10.dtd">
<svg version="1.0" xmlns="http://www.w3.org/2000/svg"
 width="600.000000pt" height="600.000000pt" viewBox="0 0 600.000000 600.000000"
 preserveAspectRatio="xMidYMid meet">
<metadata>
Created by potrace 1.11, written by Peter Selinger 2001-2013
</metadata>
<g transform="translate(0.000000,600.000000) scale(0.100000,-0.100000)"
fill="#000000" stroke="none">
<path d="M2521 5960 c-81 -11 -262 -65 -322 -96 -25 -12 -70 -45 -100 -72 -30
-26 -90 -79 -134 -116 -143 -122 -289 -271 -314 -320 -20 -41 -22 -53 -13 -89
8 -31 8 -43 -1 -49 -234 -134 -403 -264 -603 -463 -249 -249 -386 -438 -539
-750 -130 -263 -217 -545 -261 -850 -25 -168 -25 -572 0 -740 44 -305 131
-587 261 -850 151 -308 289 -501 534 -746 246 -245 439 -384 746 -534 183 -90
366 -157 557 -206 76 -19 132 -39 153 -54 l32 -25 434 0 c371 0 438 2 456 15
12 8 65 24 117 35 258 53 461 122 691 235 307 150 500 289 746 534 245 245
383 438 534 746 130 263 217 545 261 850 14 90 18 183 18 370 0 268 -11 381
-61 605 -61 277 -209 639 -357 873 -31 49 -56 92 -56 96 0 16 95 33 210 38
127 6 142 13 161 70 10 31 8 38 -17 75 -16 22 -38 47 -51 55 -12 8 -32 34 -43
59 -65 134 -420 328 -710 388 -239 50 -474 175 -870 466 -309 226 -427 298
-571 350 -126 46 -181 42 -392 -25 l-88 -28 -42 32 c-23 18 -73 53 -111 78
-60 40 -76 46 -130 49 -33 1 -90 -1 -125 -6z m209 -134 c30 -20 78 -55 105
-77 47 -38 53 -40 100 -35 28 2 95 19 150 36 185 58 234 53 422 -46 112 -59
154 -87 418 -280 424 -308 661 -435 885 -475 156 -27 389 -125 541 -226 72
-48 89 -79 47 -87 -13 -3 -70 -12 -128 -21 -58 -9 -154 -29 -213 -46 -140 -38
-208 -48 -390 -56 -158 -7 -200 -19 -164 -47 16 -12 69 -25 175 -41 45 -7 53
-22 24 -48 -36 -33 -363 -87 -542 -90 -83 -2 -103 1 -161 26 -40 16 -106 33
-170 41 -124 17 -151 26 -201 72 -50 45 -74 54 -177 64 -116 12 -125 22 -130
141 -2 62 4 132 19 221 12 71 19 140 16 153 -23 90 -199 176 -330 162 -28 -3
-88 -22 -134 -41 -46 -20 -119 -45 -163 -56 -69 -18 -85 -19 -121 -8 -49 14
-110 71 -153 143 -39 65 -68 76 -126 46 -70 -37 -154 -107 -310 -258 -81 -79
-154 -143 -162 -143 -21 0 -63 36 -87 75 -21 33 -21 37 -6 60 9 14 28 32 42
41 14 9 32 30 40 45 26 52 18 76 -46 143 -35 37 -60 72 -60 84 0 32 100 133
313 317 207 180 218 186 427 235 124 28 183 23 250 -24z m-333 -735 c46 -80
165 -151 255 -151 56 0 172 33 288 82 94 40 96 41 153 29 67 -14 144 -48 151
-68 3 -8 -1 -39 -10 -71 -22 -78 -31 -345 -14 -398 24 -77 102 -134 181 -134
22 0 39 -4 39 -9 0 -5 -17 -36 -39 -68 -153 -230 -382 -345 -656 -330 -249 14
-455 143 -580 363 -62 109 -89 213 -90 349 0 145 16 215 63 267 56 62 211 188
224 183 7 -3 23 -23 35 -44z m-712 -42 c-36 -40 -37 -44 -31 -92 6 -52 64
-153 93 -164 8 -3 33 -36 58 -74 24 -37 55 -75 68 -84 19 -12 26 -30 35 -83
24 -144 88 -293 175 -404 29 -37 80 -102 114 -146 70 -90 144 -159 222 -210
69 -44 165 -92 185 -92 9 0 16 -4 16 -10 0 -5 -16 -10 -34 -10 -51 0 -240 -38
-326 -65 -282 -90 -492 -224 -642 -414 -240 -301 -225 -652 63 -1451 22 -63
58 -164 79 -225 90 -258 204 -581 250 -705 17 -47 38 -103 45 -125 7 -22 23
-65 35 -95 11 -30 32 -86 46 -123 30 -80 55 -127 101 -184 l34 -42 -53 15
c-136 41 -330 122 -466 196 -383 207 -722 518 -961 881 -217 331 -347 680
-407 1092 -25 167 -25 533 0 700 60 412 190 761 407 1092 188 286 456 558 731
742 80 53 190 121 197 121 2 0 -13 -19 -34 -41z m3526 -842 c204 -311 336
-669 395 -1072 25 -167 25 -533 0 -700 -87 -596 -334 -1094 -750 -1511 -316
-316 -701 -546 -1117 -667 -60 -17 -111 -29 -114 -26 -2 3 6 28 19 55 28 59
40 95 84 259 15 55 60 244 87 370 43 193 58 267 65 305 8 46 18 94 45 215 9
39 20 95 26 125 6 30 14 73 19 95 4 22 17 87 28 145 29 142 39 196 72 388 5
31 16 93 24 137 46 250 50 413 14 546 -25 88 -88 212 -136 265 -15 16 -60 71
-101 122 -165 208 -403 334 -733 387 -37 6 -54 25 -22 25 36 0 174 55 248 98
125 74 269 220 325 329 11 23 25 44 30 48 6 3 38 -4 73 -16 34 -11 99 -24 143
-29 48 -5 113 -21 164 -41 82 -31 87 -32 195 -26 252 14 508 58 571 97 17 11
46 36 66 57 19 21 62 51 95 66 32 16 70 34 84 42 13 7 28 11 33 8 5 -3 36 -46
68 -96z m-2155 -728 c12 -10 14 -23 9 -57 -11 -75 -22 -89 -88 -112 -34 -11
-67 -20 -75 -20 -27 0 -181 -72 -187 -88 -3 -8 1 -22 10 -31 13 -13 19 -14 48
-2 83 35 220 81 227 76 4 -2 -14 -49 -40 -102 -27 -54 -75 -170 -108 -258 -34
-88 -93 -245 -132 -350 -40 -104 -81 -218 -91 -252 -11 -35 -24 -63 -29 -63
-15 0 -11 190 5 305 22 154 38 343 31 371 -5 20 -12 25 -34 22 -27 -3 -27 -4
-34 -93 -7 -96 -19 -204 -39 -350 -7 -53 -9 -138 -6 -208 4 -66 2 -115 -3
-112 -12 8 -119 166 -185 275 -148 245 -216 450 -202 616 7 76 36 169 65 204
l17 21 80 -34 c44 -19 102 -44 128 -56 62 -29 102 -25 102 9 0 19 -7 27 -30
33 -16 5 -68 26 -115 47 -47 21 -93 41 -102 44 -30 9 -19 29 40 76 94 75 122
92 170 101 75 13 549 4 568 -12z m214 -30 c205 -55 359 -151 465 -289 58 -76
80 -122 100 -214 18 -82 16 -211 -5 -336 -5 -30 -19 -113 -30 -185 -23 -145
-20 -129 -60 -355 -16 -91 -34 -185 -39 -210 -6 -25 -15 -72 -21 -105 -6 -33
-18 -87 -25 -120 -8 -33 -34 -154 -59 -270 -25 -115 -76 -327 -112 -470 -36
-143 -68 -271 -71 -285 -9 -47 -92 -205 -126 -240 -145 -153 -373 -221 -592
-175 -218 46 -360 196 -460 485 -15 41 -35 98 -45 125 -26 69 -189 529 -285
805 -19 52 -60 172 -93 265 -84 239 -121 358 -150 485 -59 250 -59 461 1 605
46 112 159 239 289 324 88 58 285 157 294 148 4 -4 -13 -29 -38 -55 -69 -71
-93 -110 -122 -190 -22 -61 -26 -90 -26 -177 0 -57 6 -134 14 -172 39 -184
210 -505 387 -729 83 -105 114 -112 158 -40 24 38 100 233 181 461 11 33 25
69 30 80 5 11 32 83 60 160 63 172 133 341 171 417 44 88 69 158 76 218 6 57
17 74 43 64 8 -3 48 -14 90 -25z"/>
<path d="M2148 4801 c-74 -59 -50 -194 43 -241 52 -27 124 -26 164 2 45 30 75
78 78 122 3 47 -19 66 -118 100 -110 38 -136 41 -167 17z"/>
<path d="M2822 4697 c-50 -53 -47 -135 4 -197 36 -42 74 -60 130 -60 75 0 135
47 162 128 22 64 -10 91 -153 127 -119 30 -116 30 -143 2z"/>
</g>
</svg>
